# xmcd CD database file
#
# Track frame offsets:
#	150
#	31964
#	59905
#	100154
#	115734
#	142911
#	169466
#	193865
#	204743
#	241723
#	265957
#	284902
#	317395
#
# Disc length: 4478 seconds
#
# Revision: 1
# Processed by: cddbd v1.4PL0 Copyright (c) Steve Scherf et al.
# Submitted via: CDex 1.51
#
DISCID=c7117c0d
DTITLE=Varius - Legend Crossover Jazz in Greece
DYEAR=2000
DGENRE=Jazz
TTITLE0=Infara Rae
TTITLE1=Too Close
TTITLE2=Mutual Respect
TTITLE3=Ελλησποντος
TTITLE4=Lomong
TTITLE5=Liza
TTITLE6=In between times
TTITLE7=Ουδεν προβλημα
TTITLE8=Vanpire's Sleep
TTITLE9=Ethnic jam
TTITLE10=All the cats join in
TTITLE11=Open mind
TTITLE12=Jordu
EXTD=YEAR: 2000
EXTT0=
EXTT1=
EXTT2=
EXTT3=
EXTT4=
EXTT5=
EXTT6=
EXTT7=
EXTT8=
EXTT9=
EXTT10=
EXTT11=
EXTT12=
PLAYORDER=
